PathFileType	4	(X/Y/Z)	C:\Users\chris\Desktop\Pose2Sim_Project\videos\pitch1_Sports2D\pitch1_Sports2D_px_person00.trc
DataRate	CameraRate	NumFrames	NumMarkers	Units	OrigDataRate	OrigDataStartFrame	OrigNumFrames
30.0	30.0	8	22	m	30.0	96	110
Frame#	Time	Hip			RHip			RKnee			RAnkle			RBigToe			RSmallToe			RHeel			LHip			LKnee			LAnkle			LBigToe			LSmallToe			LHeel			Neck			Head			Nose			RShoulder			RElbow			RWrist			LShoulder			LElbow			LWrist		
		X1	Y1	Z1	X2	Y2	Z2	X3	Y3	Z3	X4	Y4	Z4	X5	Y5	Z5	X6	Y6	Z6	X7	Y7	Z7	X8	Y8	Z8	X9	Y9	Z9	X10	Y10	Z10	X11	Y11	Z11	X12	Y12	Z12	X13	Y13	Z13	X14	Y14	Z14	X15	Y15	Z15	X16	Y16	Z16	X17	Y17	Z17	X18	Y18	Z18	X19	Y19	Z19	X20	Y20	Z20	X21	Y21	Z21	X22	Y22	Z22
96	3.2	849.7441949889234	372.96893000902185	0.0	883.5615783265439	368.10327258990776	0.0	981.4604581971032	467.45384965687657	0.0	1011.3833294747184	476.59562677739297	0.0	1075.189300680999	511.51745633689535	0.0	1073.0039130152231	508.47925584374786	0.0	1013.1397241491499	473.2168264577044	0.0	824.2742582967678	384.34512834930456	0.0	877.4977282902777	534.2573159580287	0.0	922.0228018598616	667.6001612152003	0.0	975.0529694229562	680.386126582137	0.0	967.8009379776753	682.5002838450731	0.0	922.363634060298	688.2752053733616	0.0	897.2984132475715	229.58927091707093	0.0	941.2660896878269	157.75526947697998	0.0	945.1831273083899	211.6869556617358	0.0	938.9679798470302	255.65642925199757	0.0	956.288779217448	355.5670444847203	0.0	993.2572550462966	409.8642996253839	0.0	833.9163147178467	236.73682927971504	0.0	764.2189105649128	292.33701037592533	0.0	768.332694976732	280.60520018708047	0.0
97	3.2333333333333334	853.8915331360388	373.46343368675565	0.0	889.193305574109	367.03058963818034	0.0	985.6874362157497	456.72622492086725	0.0	1037.0421983768206	489.6703860334977	0.0	1109.6455635919592	537.7284890652957	0.0	1107.5803828161447	531.022435871351	0.0	1040.9327487518062	496.8797518351841	0.0	828.4515135579588	384.898683181209	0.0	880.8240667784756	535.6534419835732	0.0	923.9312017239071	667.5734024775353	0.0	974.9706556584284	679.5518284106232	0.0	967.3535304132733	681.0203272710733	0.0	923.3442575231675	689.1614208411205	0.0	893.4652261907831	231.15631113937104	0.0	935.9946054749419	157.82431143052906	0.0	940.5845004888811	212.29830642574314	0.0	934.9113119611294	252.77125557044377	0.0	965.9264794553169	345.13458408343104	0.0	1026.8690576122651	388.1802908590614	0.0	831.3110457129148	241.03356687448826	0.0	768.1006503580717	305.91829256041177	0.0	790.7820766753209	295.78569253302453	0.0
98	3.2666666666666666	861.6478279097248	374.92331011058576	0.0	896.773135308388	367.6795414407269	0.0	979.6094199052325	450.82731627416496	0.0	1040.8380926906625	509.7517827051223	0.0	1103.363473441096	558.2478123877002	0.0	1105.5926548060083	552.7592292220637	0.0	1045.6443101786224	523.0904703317397	0.0	834.334030444046	385.8316024673931	0.0	884.151255458074	536.2978528920548	0.0	924.758069027675	666.7883665955675	0.0	972.8691851298232	678.0775088256714	0.0	964.1574866083473	679.5283653270792	0.0	924.2961040016698	688.7766858418503	0.0	889.6863482145435	232.02101804420067	0.0	930.715420268851	156.6472672074815	0.0	937.3722414767296	211.9142718224607	0.0	932.3977953392402	249.99073561164053	0.0	972.0071210462727	335.5848565269035	0.0	1043.5871897376458	368.91014286367545	0.0	827.4374929906114	244.71445302072846	0.0	773.4365617017762	320.0830480544701	0.0	806.0698099559318	313.48352998744343	0.0
99	3.3	870.109242048245	377.1040268309223	0.0	904.414717170317	369.8900656919054	0.0	965.2856794613444	449.1368058838805	0.0	1025.1737311591778	531.5580965147593	0.0	1067.5603321486208	567.2635675530486	0.0	1074.8128130512177	564.6770017704529	0.0	1029.997648829525	547.2101536417048	0.0	840.1101652087076	387.469035034205	0.0	887.2169423343283	535.798615972393	0.0	925.2615346727597	665.013033157785	0.0	971.1178264256137	676.4657551735877	0.0	960.5910017187213	678.6315620536362	0.0	926.1162205791688	687.1624536771519	0.0	887.1296620203146	230.27772022627354	0.0	925.1540103479149	154.15898398672027	0.0	934.4607003292845	209.17488059859653	0.0	931.5357868836044	247.36485888854625	0.0	975.7618076458252	328.4506565732728	0.0	1047.5525662659759	355.9804401692327	0.0	823.5413240839732	246.37957129349815	0.0	780.2379807647351	330.8088812426255	0.0	805.464764198056	331.1875789385274	0.0
100	3.3333333333333335	876.1268894865727	379.12407959507914	0.0	909.821642708616	373.18924043417303	0.0	947.4638555797794	453.3574797738091	0.0	995.5749580645411	548.3921647368544	0.0	1016.1903609218316	568.6894648215248	0.0	1028.4693769559024	567.4732937161928	0.0	999.6638191359351	564.7760724739467	0.0	844.4577851721451	388.7713065217689	0.0	889.781878529403	533.9409040308465	0.0	926.2702173782002	661.3768238471553	0.0	969.9089700785202	676.0321506438407	0.0	957.8662802950132	679.2543202496047	0.0	929.6100570880272	684.2421030702044	0.0	886.3165547362707	226.60578794340537	0.0	920.8081909248507	151.48034608197406	0.0	931.8071782491896	205.1489878230126	0.0	931.914056615548	245.59654056085162	0.0	977.7642129764947	324.1086960480262	0.0	1044.281238116987	347.4630416599683	0.0	821.740042550858	245.65094142848537	0.0	787.441845800521	333.7529933701776	0.0	795.720785477056	347.4440074199114	0.0
101	3.3666666666666667	878.7679538569168	380.0291772645148	0.0	912.0863186424801	376.7193357836993	0.0	930.2697293513335	464.3594335488304	0.0	960.7799397636031	559.0057711082655	0.0	964.5084473229485	572.5714354992249	0.0	980.0927828486626	569.9843364958707	0.0	963.2557059722302	575.6958765177044	0.0	847.139525393253	388.7302556858929	0.0	891.3666644281622	530.5532181356664	0.0	928.0052964841452	654.3753182906094	0.0	969.7837521069367	678.5895754413084	0.0	957.7543545428337	682.0054174456252	0.0	934.6921933104143	677.8268318808839	0.0	886.6967032109558	223.49197071032023	0.0	919.1536808867766	150.0611444344575	0.0	929.9241180238548	202.46871818062272	0.0	932.8653504470631	245.5525300661959	0.0	977.282629232248	322.81096153277576	0.0	1038.523019372012	341.39375604060064	0.0	822.2616342321077	244.00963016380354	0.0	793.4132115873545	331.23304960665234	0.0	788.0215635913955	360.9351852735474	0.0
102	3.4	879.2226976469257	380.44482976436325	0.0	911.7147642495249	380.35191412527206	0.0	914.6040587213332	479.6641146616568	0.0	928.276605682255	567.7306728125025	0.0	920.2766737389792	583.4915325713567	0.0	936.0480916940509	578.562925458607	0.0	928.9031957661455	585.1843205777161	0.0	848.4315450856205	388.0676722180102	0.0	890.8133285913456	527.0674258951018	0.0	930.488675754357	643.7064847157156	0.0	972.486930194769	683.5385086851688	0.0	962.0451442161046	685.2879666301696	0.0	940.6782532529869	665.5478556795445	0.0	887.5007428495733	223.29809930089874	0.0	919.3171672657456	151.2866948449026	0.0	928.5450725523506	203.22470418701312	0.0	933.9978733909187	248.2681754567352	0.0	974.5243138934197	324.85220608231305	0.0	1034.210107101605	336.8134161416286	0.0	823.8600253042732	243.98110040070162	0.0	796.8802552132196	330.3835119446677	0.0	785.2622185720609	371.6033123758991	0.0
103	3.433333333333333	878.924079178154	383.00067828675486	0.0	909.676687953318	385.57107942627573	0.0	899.849022386578	494.9215783968617	0.0	900.8727874601697	578.3577536203356	0.0	883.4080203404674	596.4109264342568	0.0	897.8153678309311	591.3162773686614	0.0	901.0621406955627	597.7903042181765	0.0	848.8557507544418	389.3182184915978	0.0	886.1026036179766	526.189437275622	0.0	933.0946635064056	630.4288600211938	0.0	976.2301082096069	686.2117246196261	0.0	967.9912036018159	684.9245720189048	0.0	947.1913025595189	647.287828310986	0.0	888.6295085858177	227.42264331138585	0.0	918.7656364908077	156.03682722274715	0.0	927.1139820145487	207.89940907888752	0.0	935.4574537975828	254.83386285518733	0.0	972.1451650459446	330.43748655838664	0.0	1032.7999218980729	332.5046103945378	0.0	825.8263785218368	247.73608634055051	0.0	797.965054019996	334.09720780574764	0.0	782.2656728844897	380.7891350575361	0.0
